<?xml version="1.0" encoding="UTF-8" standalone="no"?>
<!-- Created with Inkscape (http://www.inkscape.org/) -->

<svg
   xmlns:dc="http://purl.org/dc/elements/1.1/"
   xmlns:cc="http://creativecommons.org/ns#"
   xmlns:rdf="http://www.w3.org/1999/02/22-rdf-syntax-ns#"
   xmlns:svg="http://www.w3.org/2000/svg"
   xmlns="http://www.w3.org/2000/svg"
   xmlns:sodipodi="http://sodipodi.sourceforge.net/DTD/sodipodi-0.dtd"
   xmlns:inkscape="http://www.inkscape.org/namespaces/inkscape"
   width="32"
   height="32"
   id="svg3070"
   version="1.1"
   inkscape:version="0.92.3 (2405546, 2018-03-11)"
   sodipodi:docname="linked.svg">
  <defs
     id="defs3072" />
  <sodipodi:namedview
     id="base"
     pagecolor="#ffffff"
     bordercolor="#666666"
     borderopacity="1.0"
     inkscape:pageopacity="0.0"
     inkscape:pageshadow="2"
     inkscape:zoom="15.839192"
     inkscape:cx="19.400905"
     inkscape:cy="14.365598"
     inkscape:document-units="px"
     inkscape:current-layer="layer1"
     showgrid="false"
     fit-margin-top="0"
     fit-margin-left="0"
     fit-margin-right="0"
     fit-margin-bottom="0"
     inkscape:window-width="2560"
     inkscape:window-height="1412"
     inkscape:window-x="0"
     inkscape:window-y="0"
     inkscape:window-maximized="1" />
  <metadata
     id="metadata3075">
    <rdf:RDF>
      <cc:Work
         rdf:about="">
        <dc:format>image/svg+xml</dc:format>
        <dc:type
           rdf:resource="http://purl.org/dc/dcmitype/StillImage" />
        <dc:title></dc:title>
      </cc:Work>
    </rdf:RDF>
  </metadata>
  <g
     inkscape:label="Layer 1"
     inkscape:groupmode="layer"
     id="layer1"
     transform="translate(-414.43479,-439.99352)">
    <path
       style="fill:#006699;fill-opacity:1;fill-rule:nonzero;stroke:none;stroke-width:0.42758423"
       d="m 416.88567,439.99352 c -1.29781,0 -2.35006,1.02703 -2.35006,2.29268 v 27.41546 c 0,1.26607 1.05225,2.29186 2.35006,2.29186 h 27.09824 c 1.29776,0 2.35006,-1.02579 2.35006,-2.29186 V 442.2862 c 0,-1.26565 -1.0523,-2.29268 -2.35006,-2.29268 z m 4.9198,5.37145 c 1.64308,0 2.65409,1.07892 2.68532,2.49678 0,1.38666 -1.04244,2.49679 -2.71729,2.49679 h -0.0312 c -1.61178,0 -2.65416,-1.11013 -2.65416,-2.49679 0,-1.41786 1.07437,-2.49678 2.71728,-2.49678 z m 14.15856,6.62722 c 3.15989,0 5.52883,2.06512 5.52883,6.50344 v 8.28546 h -4.80258 v -7.73052 c 0,-1.94252 -0.69494,-3.2673 -2.43285,-3.2673 -1.3268,0 -2.1168,0.89374 -2.464,1.7566 -0.12681,0.30872 -0.1582,0.73948 -0.1582,1.17134 v 8.06988 h -4.80258 c 0,0 0.063,-13.09368 0,-14.44955 h 4.80258 v 2.04759 c 0.63775,-0.98481 1.77745,-2.38694 4.3288,-2.38694 z m -16.59223,0.33935 h 4.8034 v 14.44955 h -4.8034 z"
       id="path14"
       inkscape:connector-curvature="0" />
  </g>
</svg>
